# xmcd
#
# Track frame offsets:
#	150
#	17944
#	35588
#	58538
#	79756
#	112003
#	130847
#	150224
#	169575
#	191213
#	208506
#	225300
#	225685
#	226060
#	226435
#	226810
#	227185
#	227560
#	227935
#	228310
#	228685
#	229060
#	229435
#	229743
#
# Disc length: 3265 seconds
#
# Revision: 2
# Processed by: cddbd v1.5.2PL0 Copyright (c) Steve Scherf et al.
# Submitted via: EasyCDDAExtractor 12.1.0.1
#
DISCID=2a0cbf18
DTITLE=BeBe Winans - Dream
DYEAR=2004
DGENRE=Gospel
TTITLE0=When You Pray
TTITLE1=Love Thang
TTITLE2=Love Me Anyway
TTITLE3=That's A Friend
TTITLE4=I Have A Dream
TTITLE5=Help Is On The Way
TTITLE6=So Glad
TTITLE7=HaveYou Ever Had
TTITLE8=If I Let My Heart Go
TTITLE9=Miracle Of Love
TTITLE10=Safe From Harm
TTITLE11=blank
TTITLE12=blank
TTITLE13=blank
TTITLE14=blank
TTITLE15=blank
TTITLE16=blank
TTITLE17=blank
TTITLE18=blank
TTITLE19=blank
TTITLE20=blank
TTITLE21=blank
TTITLE22=blank
TTITLE23=Benjamin Bonus Track
EXTD=shine.fm\nbebewinans.net\nstillwatersrecordings.com
EXTT0=
EXTT1=
EXTT2=
EXTT3=
EXTT4=
EXTT5=
EXTT6=
EXTT7=
EXTT8=
EXTT9=
EXTT10=
EXTT11=
EXTT12=
EXTT13=
EXTT14=
EXTT15=
EXTT16=
EXTT17=
EXTT18=
EXTT19=
EXTT20=
EXTT21=
EXTT22=
EXTT23=
PLAYORDER=
